# xmcd
#
# Track frame offsets: 
#        150
#        14487
#        33524
#
# Disc length: 699 seconds
#
# Revision: 0
# Processed by: cddbd v1.5.2PL0 Copyright (c) Steve Scherf et al.
# Submitted via: ExactAudioCopy v1.0b3
#
DISCID=1d02b903
DTITLE=Without Hair Band - Enge Muh
DYEAR=1900
DGENRE=
TTITLE0=Enge Muh (Single Edit)
TTITLE1=Enge Muh (Extended Version)
TTITLE2=Enge Muh (Abtanz Mix)
EXTD=
EXTT0=
EXTT1=
EXTT2=
PLAYORDER=
